<svg xmlns="http://www.w3.org/2000/svg" viewBox="0 0 357.1 357.1" fill-rule="evenodd" fill="#fff" xmlns:v="https://vecta.io/nano"><path d="M151 116.4l-14.4 24.9c-2.8 4.8-4.4 10-5.1 15-2.5 20.7 18.5 36.3 37.7 28.1h0c5.9-2.5 12.6-2.5 18.6 0h0c19.2 8.2 40.2-7.4 37.7-28.1-.6-5-2.3-10.1-5.1-15L206 116.4c-12.2-21.2-42.7-21.2-55 0z"/><ellipse transform="matrix(.9429 -.333 .333 .9429 -25.2234 41.1006)" cx="107.3" cy="94.1" rx="17" ry="24.3"/><ellipse transform="matrix(.9429 -.333 .333 .9429 -9.5755 53.013)" cx="149.9" cy="54.4" rx="17" ry="24.3"/><ellipse transform="matrix(.333 -.9429 .9429 .333 77.8005 298.368)" cx="249.8" cy="94.2" rx="24.3" ry="17"/><ellipse transform="matrix(.333 -.9429 .9429 .333 86.8456 231.7305)" cx="207.2" cy="54.5" rx="24.3" ry="17"/><path d="M66.6 240.7c-34-51.5 1.8-77.7 19.9-43 12 22.9 36.3 28.9 44.8 41.9 15.5 23.6-7.7 54.2 3.7 86.3l-80.9.3c3.3-25.8-1.7-37.1-11.2-46.2-21.9-20.9-28.4-40.6-34.2-56-8.2-21.8-14-100.3-1.3-114.6 9.2-10.3 18.9-4.3 23.9 14.6 1.3 4.9 11.3 77.2 29.6 107.1m5.7 9.6h0 0zm223.9 0c34-51.5-1.8-77.7-19.9-43-12 22.9-36.3 28.9-44.8 41.9-15.5 23.6 7.7 54.2-3.7 86.3l80.9.3c-3.3-25.8 1.7-37.1 11.2-46.2 21.9-20.9 28.4-40.6 34.2-56 8.3-21.9 14.1-100.3 1.4-114.7-9.2-10.3-18.9-4.3-23.9 14.6-1.3 4.9-11.3 77.2-29.6 107.1m-5.8 9.7h0 0z"/></svg>