<?xml version="1.0" encoding="utf-8"?>
<!-- Generator: Adobe Illustrator 25.3.1, SVG Export Plug-In . SVG Version: 6.00 Build 0)  -->
<svg version="1.1" id="Layer_1" xmlns="http://www.w3.org/2000/svg" xmlns:xlink="http://www.w3.org/1999/xlink" x="0px" y="0px"
	 viewBox="0 0 357.1 357.1" style="enable-background:new 0 0 357.1 357.1;" xml:space="preserve">
<style type="text/css">
	.st0{fill-rule:evenodd;clip-rule:evenodd;fill:#FFFFFF;}
</style>
<g>
	<path id="_386666688" class="st0" d="M151,116.4l-14.4,24.9c-2.8,4.8-4.4,10-5.1,15c-2.5,20.7,18.5,36.3,37.7,28.1l0,0
		c5.9-2.5,12.6-2.5,18.6,0l0,0c19.2,8.2,40.2-7.4,37.7-28.1c-0.6-5-2.3-10.1-5.1-15l-14.4-24.9C193.8,95.2,163.3,95.2,151,116.4z"/>
	<g>
		<g>
			
				<ellipse id="_386667216" transform="matrix(0.9429 -0.333 0.333 0.9429 -25.2234 41.1006)" class="st0" cx="107.3" cy="94.1" rx="17" ry="24.3"/>
			
				<ellipse id="_386666976" transform="matrix(0.9429 -0.333 0.333 0.9429 -9.5755 53.013)" class="st0" cx="149.9" cy="54.4" rx="17" ry="24.3"/>
		</g>
		<g>
			
				<ellipse id="_386666736" transform="matrix(0.333 -0.9429 0.9429 0.333 77.8005 298.368)" class="st0" cx="249.8" cy="94.2" rx="24.3" ry="17"/>
			
				<ellipse id="_386667192" transform="matrix(0.333 -0.9429 0.9429 0.333 86.8456 231.7305)" class="st0" cx="207.2" cy="54.5" rx="24.3" ry="17"/>
		</g>
	</g>
</g>
<g>
	<path id="_377612776" class="st0" d="M66.6,240.7c-34-51.5,1.8-77.7,19.9-43c12,22.9,36.3,28.9,44.8,41.9
		c15.5,23.6-7.7,54.2,3.7,86.3l-80.9,0.3c3.3-25.8-1.7-37.1-11.2-46.2c-21.9-20.9-28.4-40.6-34.2-56C0.5,202.2-5.3,123.7,7.4,109.4
		c9.2-10.3,18.9-4.3,23.9,14.6c1.3,4.9,11.3,77.2,29.6,107.1 M66.6,240.7L66.6,240.7L66.6,240.7z"/>
	<path id="_377612320" class="st0" d="M290.5,240.7c34-51.5-1.8-77.7-19.9-43c-12,22.9-36.3,28.9-44.8,41.9
		c-15.5,23.6,7.7,54.2-3.7,86.3l80.9,0.3c-3.3-25.8,1.7-37.1,11.2-46.2c21.9-20.9,28.4-40.6,34.2-56c8.3-21.9,14.1-100.3,1.4-114.7
		c-9.2-10.3-18.9-4.3-23.9,14.6c-1.3,4.9-11.3,77.2-29.6,107.1 M290.5,240.7L290.5,240.7L290.5,240.7z"/>
</g>
</svg>
