<svg xmlns="http://www.w3.org/2000/svg" viewBox="0 0 247.71 263.39" fill="#00a190" xmlns:v="https://vecta.io/nano"><path d="M122.45 263.39c-1.13 0-1.24-.11-1.72-.94l-10-17.07q-4.18-7.08-8.34-14.18a7.8 7.8 0 0 0-6.77-4l-32.72-3.25a266.37 266.37 0 0 1-51.46-11.52c-2.8-.92-5.78-2-9.82-3.49a.86.86 0 0 1-.33-.23c-1.85-2.32-1.62-4.95.21-6.5l.1-.08 6.84-5.73 15.38-13.14 1.89-1.71c10.78-9.72 21.92-19.78 32.41-30.18 14.17-14.05 28.88-29.57 40.7-47.78l.38-.6c4.26-6.57 8.66-13.37 10-21.69a54.3 54.3 0 0 0 .44-8.58c0-1.81 0-3.52.11-5.21l.36-5.88c.36-6.29.74-12.8 1.72-19 1.2-7.57 4.92-15 11.07-22.16 8.56-9.93 19-16.3 31-18.91A64.89 64.89 0 0 1 167.65 0c12.39 0 24 4 34.44 12a54.74 54.74 0 0 1 21.1 33.8c.61 3.11 4.19 5 4.9 5.29l18.79 8.8c1.54 2.39.82 4.8-1.17 5.72h-.11L240.41 68l-12.83 6c-2.47 1.22-3.15 4.53-3.17 6.11l-.06 20.74q0 6.3 0 12.6c-.07 23-6.09 43.9-17.88 62.18a113.45 113.45 0 0 1-38.94 37.07l-2.74 1.55a5 5 0 0 0-2 6.66l2.8 5.17c3 5.5 5.79 10.69 8.44 16.09 1.5 3.06 3.94 6.57 9.54 6.57l7.41-.08a7.32 7.32 0 0 1 7.4 7.31h0a7.31 7.31 0 0 1-7.31 7.32h-24.2q-22.17 0-44.34.06zm21.08-40.16a8.59 8.59 0 0 0-2.75.5 41.54 41.54 0 0 1-5.68 1.27l-1.43.27-7.59 1.38-1.91.34a1.81 1.81 0 0 0-.45.14 4.94 4.94 0 0 0-2.31 7l.83 1.42 6.15 10.46a5.41 5.41 0 0 0 4.29 2.55h13.35 7.34a1.55 1.55 0 0 0 .63-.13 5 5 0 0 0 2.7-7l-1.39-2.6-6.09-11.67c-1.32-2.6-3.22-3.93-5.69-3.93zm-4.26-73.89a7.28 7.28 0 0 1 3.85 1.09l1 .6a3.45 3.45 0 0 1 1 .89 7.59 7.59 0 0 1 .24 9.28c-3.77 5-7.5 9.94-11.6 14.52a120 120 0 0 1-42.61 30.59c-2 2.46-.64 5.25 1.63 5.66.6.11 1.07.21 1.46.3a10.21 10.21 0 0 0 2.17.3h.15l7-.13 19.16-.58c10.62-.61 21.58-3.81 32.57-9.52 23.53-12.22 39.9-30.82 48.65-55.28v-.12c3.12-8.71 2.76-10.09-4.24-16.44l-.76-.69c-.65-.6-1.31-1.15-2-1.64-20.88-15.79-45-25.37-73.67-29.28a5.65 5.65 0 0 0-.59 0c-2.32 0-4.27 1.76-5 2.52a10.82 10.82 0 0 0-1.88 2.91c-.15.3-.29.6-.45.88-10.9 18.94-25.74 35.3-40.15 50.16-7.35 7.59-15.23 15-22.85 22.12q-4.94 4.6-9.83 9.25l-6.2 5.79-1.06 1a1.33 1.33 0 0 0-.26.48c-1.3 3.91 1.28 7 4.47 7h1.48c39 0 69.21-16 92.49-48.75a7.19 7.19 0 0 1 5.83-2.91zM167 15a46.74 46.74 0 0 0-8.38.77C140.86 19 126.78 33.94 125.17 51.2c-.66 7.12-.67 14.35-.67 21.35v7c0 2.32 2.2 4.53 4.21 5 1.76.41 3.53.68 5.24 1l3.14.52a163 163 0 0 1 49 17.36c4.09 2.26 8.07 4.75 12.27 7.39l3.39 2.12a4.79 4.79 0 0 0 2.56.74 4.86 4.86 0 0 0 4.86-4.85q0-7.27.05-14.57V57.51a46.34 46.34 0 0 0-2.48-14.83A41.58 41.58 0 0 0 167 15zm11.73 47.39a10.62 10.62 0 0 1-10.92-10.77c0-3.63 1-6.6 3-8.6a10.52 10.52 0 0 1 7.68-2.84h.44.91a9.74 9.74 0 0 1 6.92 3 11.31 11.31 0 0 1-7.93 19.27z"/></svg>