<svg id="Layer_1" data-name="Layer 1" xmlns="http://www.w3.org/2000/svg" viewBox="0 0 18.8 20.23"><defs><style>.cls-1{fill:#15151c;}</style></defs><path class="cls-1" d="M12,12.86H3.59a1.76,1.76,0,0,1-1.72-1.43l-1-5.58A1.75,1.75,0,0,1,2.56,3.79H14.18a.78.78,0,0,1,.58.27.74.74,0,0,1,.16.61l-1.25,6.76A1.75,1.75,0,0,1,12,12.86ZM2.56,5.29a.23.23,0,0,0-.19.09.22.22,0,0,0-.05.2l1,5.58a.24.24,0,0,0,.24.2H12a.26.26,0,0,0,.25-.2l1.08-5.87Z" transform="translate(-0.61)"/><path class="cls-1" d="M14.18,5.29l-.14,0a.75.75,0,0,1-.6-.87l.55-3A1.75,1.75,0,0,1,15.71,0h3a.76.76,0,0,1,.75.75.76.76,0,0,1-.75.75h-3a.25.25,0,0,0-.24.2l-.55,3A.75.75,0,0,1,14.18,5.29Z" transform="translate(-0.61)"/><path class="cls-1" d="M3.14,20.23a2.53,2.53,0,1,1,2.53-2.52A2.53,2.53,0,0,1,3.14,20.23Zm0-3.55a1,1,0,1,0,1,1A1,1,0,0,0,3.14,16.68Z" transform="translate(-0.61)"/><path class="cls-1" d="M12.4,20.23a2.53,2.53,0,1,1,2.53-2.52A2.52,2.52,0,0,1,12.4,20.23Zm0-3.55a1,1,0,1,0,1,1A1,1,0,0,0,12.4,16.68Z" transform="translate(-0.61)"/></svg>