<svg xmlns="http://www.w3.org/2000/svg" viewBox="0 0 234.55 229.72" fill="#00a190" xmlns:v="https://vecta.io/nano"><path d="M234.46 18.1c0-7-2.46-12.59-8.75-15.94-6.48-3.46-12.71-2.59-18.65 1.6l-32.51 22.77c-3.57 2.58-6.61 3.17-11 1.68-30.8-10.57-61.75-10.7-92.55 0-4.35 1.52-7.48.9-11-1.66L28 4.05C22.19-.07 16-1.49 9.43 1.88S.22 10.84.28 18.16L.33 72.9H.06v43.92c.58 44 19.63 77.35 57.88 99.24 24.59 14.07 51.52 15.23 78.85 12.45 54.16-5.5 97-52.38 97.56-106.92l.11-103.49zm-18.2 101.31c-.15 50.78-41 91.46-91.89 92-19.24.18-38.21-.59-55.54-10-32.54-17.68-49.77-45.21-50.51-82.24-.63-31.07-.14-62.17-.07-93.25a27.35 27.35 0 0 1 .95-5.08A36.78 36.78 0 0 1 23.37 23l32.54 22.71c4.89 3.52 9.65 4 15.22 1.81q45.91-18.27 92-.15c5.74 2.27 10.59 2 15.72-1.78 10.84-7.92 22-15.42 33-23a19.81 19.81 0 0 1 3.72-1.59 23.49 23.49 0 0 1 .66 3.94v50.54l.03 43.93zm-50.36-17.88c-9 0-16.55 8.25-16.73 18.42-.17 9.84 7.5 18.63 16.44 18.85 9.39.25 17.09-8.09 17.17-18.57s-7.19-18.66-16.88-18.7zm-98.4.03c-9.57-.21-17.27 8-17.33 18.38s7.72 19 17 18.88c9-.09 16.68-8.66 16.74-18.58C84 110 76.7 101.76 67.5 101.56zm85.91 61.16c-2.93-1.76-5.94-.85-8.27 2.5-3.25 4.66-8.21 6.49-13.26 5.09-4.89-1.35-7.25-6.07-8.27-10.31a20 20 0 0 0 10.39-7.5c6.61-9.24-4.79-13.92-16.33-14-11.94-.06-24 4.82-16.37 14.7a19.83 19.83 0 0 0 10.07 6.86 11.81 11.81 0 0 1-1.06 3c-.11.33-.28.64-.42 1a11 11 0 0 1-13.59 6.24 12.92 12.92 0 0 1-7.11-5.75 5.6 5.6 0 0 0-7.57-1.91c-2.48 1.39-3.79 4.65-2.33 7.15a31.94 31.94 0 0 0 5.22 6.4 20.68 20.68 0 0 0 15.57 6c6.62-.2 12.49-2.49 16.68-8 .42-.55.67-.71 1.27 0a21.49 21.49 0 0 0 19.88 7.77c7.88-.94 13.55-5.21 17.57-11.8a5.46 5.46 0 0 0-2.07-7.44z"/></svg>