<svg xmlns="http://www.w3.org/2000/svg" viewBox="0 0 277.26 236.52" fill="#00a190" xmlns:v="https://vecta.io/nano"><path d="M277.22 109.45c.63 20.39-7.08 36-25.71 45.26-4.1 2-8.76 3-13.25 4.2-2.8.71-4.26 2-5 4.92-12.53 48.26-56.89 78.17-106.39 71.84-41.3-5.27-72-32-82.47-71.65-.47-1.8-2.61-3.71-4.43-4.52-7-3.13-14.87-4.86-21.25-8.92C7.13 143.22.87 131.74.18 118.09c-2-39.85 12.37-72.53 44.44-96.75C63.21 7.31 84.48.39 107.76.13h61.61C222.48.29 268.93 41.27 275.83 94c.67 5.14.93 10.3 1.39 15.45zM138.6 15.32c-10.61 0-21.2.3-31.6.46a86.46 86.46 0 0 0-44.31 12.38C30 48 14.65 77.33 15.66 115.44a28.76 28.76 0 0 0 21.56 27.13c3.41.89 4.78.2 4.51-3.48-.22-2.91 0-5.86 0-8.79q0-24.59 0-49.18a24.64 24.64 0 0 1 0-2.58c.52-5.26 3.56-8.31 8.13-8.18s7.41 3.15 7.43 8.67l.09 61.08a82.13 82.13 0 0 0 1.39 15.42c7.89 39.86 39.71 65.24 81.38 65.12 45.54-.14 80.52-35.39 80.39-81q-.09-30.28 0-60.56c0-5.65 2.55-8.59 7.26-8.77 4.86-.19 7.88 2.89 8.32 8.52.08 1 0 2.07 0 3.1q0 28.47 0 56.94c0 2.23-.51 4.59 3.4 3.72 11.21-2.48 21.15-13.4 21.46-25a147.39 147.39 0 0 0-1.09-24.23c-5.37-38.76-40-72.72-79-76.56a412.46 412.46 0 0 0-42.29-1.49zm.05 129.35c13.24 0 28.16 3.5 20.88 16.45-4.69 8.32-12.31 11.89-21.53 11.8-8.63-.08-15.73-3.71-20.27-11.27-8.49-14.12 11.5-17.01 20.92-16.98zm30.15-30.17c-.06-8.86 6.23-15.91 14.25-16 8.22-.08 15.47 7.73 15.65 16.84.17 8.66-6.23 16-14.08 16.27-8.39.25-15.75-7.71-15.82-17.11zm-59.8.1c0 9.12-6.94 16.88-15.22 17-8 .16-14.76-7.34-14.6-16.12.17-9.23 7-16.87 15.32-17s14.5 6.9 14.5 16.12z"/><path d="M96.21,171.05a65.64,65.64,0,0,1,.89-6.59,5,5,0,0,1,6.16-3.81c2.92.72,4.36,3.36,3.83,6.44-.88,5-.62,10,3,14a13.29,13.29,0,0,0,23.13-6.46,10.72,10.72,0,0,0,.28-1.48c.1-2.14.3-4-2.27-5.4a10.88,10.88,0,0,1-5.17-6.87c-.86-3,.32-5.51,3.26-6.57a28.33,28.33,0,0,1,12.46-1.27,35,35,0,0,1,7.55,1.45c2.73.9,3.64,3.15,3,6-.94,3.94-3.53,6.54-6.94,8.39a2.5,2.5,0,0,0-1.42,2.44,12.92,12.92,0,0,0,5,11.51,12.65,12.65,0,0,0,12.75,2.08c4.56-1.66,7.65-5,8.46-9.76a33.93,33.93,0,0,0-.07-8.6c-.19-2.09,1-4.77,3-5.6,2.23-.93,5.16-.25,6.23,1.65a10.55,10.55,0,0,1,1.28,3.68c.95,7.24.16,14.13-4.42,20.19a23.08,23.08,0,0,1-16.18,9.4c-8.25,1-15-1.83-20.6-7.78-.75-.8-1.08-.7-1.69,0a22.66,22.66,0,0,1-13.18,7.55,22.89,22.89,0,0,1-18.75-4.36,23.48,23.48,0,0,1-9.37-16.23,27.79,27.79,0,0,1,0-4Z"/></svg>