<svg id="Layer_1" data-name="Layer 1" xmlns="http://www.w3.org/2000/svg" viewBox="0 0 22.67 22.67"><defs><style>.cls-1{fill:#15151c;}</style></defs><path class="cls-1" d="M11.33,22.67A11.34,11.34,0,1,1,22.67,11.33,11.35,11.35,0,0,1,11.33,22.67Zm0-21.17a9.84,9.84,0,1,0,9.84,9.83A9.84,9.84,0,0,0,11.33,1.5Z"/><path class="cls-1" d="M11.81,22.5l-1-1.16A2.8,2.8,0,0,0,12,17.85a5,5,0,0,1,.12-3.41c.74-1.7,2.61-1.74,4.41-1.79s3.73-.09,4.75-1.72l1.27.8c-1.45,2.31-4,2.37-6,2.42-1.68,0-2.72.11-3.07.89a3.71,3.71,0,0,0,0,2.48A4.26,4.26,0,0,1,11.81,22.5Z"/><path class="cls-1" d="M7.55,13a6.81,6.81,0,0,1-2.67-.77c-1.35-.58-2.52-1.09-3.72-.3L.34,10.71c1.88-1.24,3.68-.45,5.13.18a3.79,3.79,0,0,0,2.61.54c.8-.31.93-.73,1.15-1.75A5.77,5.77,0,0,1,10.8,6.49a7.34,7.34,0,0,1,2.8-1.65,3.91,3.91,0,0,0,2.83-2.62l1.41.53a5.4,5.4,0,0,1-3.7,3.48,6,6,0,0,0-2.28,1.32A4.38,4.38,0,0,0,10.69,10a3.24,3.24,0,0,1-2.08,2.83A2.88,2.88,0,0,1,7.55,13Z"/></svg>