<svg xmlns="http://www.w3.org/2000/svg" viewBox="0 0 205 205" xmlns:v="https://vecta.io/nano"><path d="M95.2 135.9c-17.2-2.1-31.1-9.4-41.8-21.8-10.7-12.5-16.1-26.8-16.1-43 0-17.9 6.4-33.3 19.1-46.1C69.1 12.3 84.5 5.9 102.5 5.9c17.9 0 33.2 6.4 46 19.2s19.2 28.2 19.2 46c0 16.1-5.4 30.5-16.1 43-10.8 12.4-24.8 19.7-41.9 21.8v24.5H134v14.5h-24.2v24.2H95.2v-24.2H71.1v-14.5h24.1v-24.5zm7.3-14c13.9 0 25.9-5 35.8-14.9s14.9-21.8 14.9-35.8-4.9-26-14.9-35.9c-9.9-9.9-21.8-14.9-35.8-14.9s-26 5-35.9 14.9c-9.9 10-14.9 21.9-14.9 35.8 0 14 5 26 14.9 35.8 10 10 21.9 15 35.9 15z" fill="#fff" stroke="#fff" stroke-width="5" stroke-linejoin="round"/></svg>