<svg xmlns="http://www.w3.org/2000/svg" viewBox="0 0 247.44 217.49" fill="#00a190" xmlns:v="https://vecta.io/nano"><path d="M182.2 199.86a11 11 0 0 1-4.64 16.65 10.8 10.8 0 0 1-14.63-6.81c-.31-1.13-1-1-1.74-.8-3.47 1-6.88 2.22-10.4 3-4.24.9-8.6 1.27-12.86 2.09-6.66 1.26-13.39 1.07-20.08.83a111.13 111.13 0 0 1-14.51-1.82c-4.56-.77-9.07-1.89-13.58-2.94-1.54-.35-3-1-4.66-1.52-1.22 3.76-3.4 6.76-7.27 8.19a10.18 10.18 0 0 1-9.67-1.12c-5.6-3.95-6.46-10.4-2.92-15.7l-4.55-3-8-5.34c-5.53-3.59-10.19-8.22-15-12.68a67.07 67.07 0 0 1-7.25-7.91c-3.77-4.87-7.47-9.82-10.83-15a141.85 141.85 0 0 1-7.32-13.16c-1.29-2.53-2.15-5.29-3.22-7.94-.84-2-1.63-4.1-2.57-6.09a47.53 47.53 0 0 1-3.78-14.09c-.44-3.37-1.23-6.68-1.81-10a26.82 26.82 0 0 1-.36-3.57C.36 95.85 0 90.51 0 85.17s.43-10.65 1-15.94a92.6 92.6 0 0 1 1.84-10.81c.8-3.64 1.74-7.26 2.85-10.81s2.34-7 3.78-10.32c2.09-4.9 4.28-9.75 6.69-14.5a67.8 67.8 0 0 1 4.71-7.15c1.75-2.59 3.45-5.22 5.35-7.69A21.81 21.81 0 0 1 36.8.76 15.38 15.38 0 0 1 41.71 0q82-.06 164.07 0a19.62 19.62 0 0 1 9.78 3c3.94 2.28 6.53 5.82 9 9.46 1.42 2.09 2.61 4.34 3.9 6.52 1 1.6 1.93 3.19 2.85 4.81 1.26 2.2 2.59 4.38 3.67 6.67 1.6 3.4 3.11 6.85 4.47 10.36.93 2.41 1.56 5 2.27 7.45.92 3.23 2 6.44 2.62 9.73.88 4.51 1.29 9.11 2.16 13.62 1.41 7.29.81 14.64.86 22a67 67 0 0 1-.85 7.56c-.16 1.51-.14 3-.38 4.53-.42 2.58-1 5.13-1.49 7.7-.44 2.22-.79 4.47-1.36 6.66-.7 2.63-1.58 5.22-2.4 7.81-.66 2.09-1.23 4.21-2.06 6.24-1.12 2.75-2.4 5.44-3.69 8.12-1.67 3.45-3.25 6.95-5.15 10.26a104 104 0 0 1-6.49 10.07 133.22 133.22 0 0 1-9.23 11.43c-3.76 4.07-7.79 7.91-11.93 11.6a116.93 116.93 0 0 1-10.3 8.11c-2.64 1.89-5.57 3.38-8.36 5.06-.52.33-.98.73-1.47 1.09zM14 114.9a37.11 37.11 0 0 1 1.61 3.49l3.67 10.91c1.14 3.09 2.39 6.15 3.8 9.12a98.34 98.34 0 0 0 5.21 9.91 128.8 128.8 0 0 0 8.48 12.2A151 151 0 0 0 47.2 172c2.71 2.73 5.72 5.17 8.65 7.67a51.32 51.32 0 0 0 4.92 3.81c2.31 1.53 4.73 2.89 7.12 4.29A100.27 100.27 0 0 0 77 193c4.73 2.12 9.58 4 14.49 5.69 3.67 1.24 7.51 2 11.29 2.89a44.18 44.18 0 0 0 5.48.94 93.86 93.86 0 0 0 10.56.92c4.49 0 9 .57 13.49-.5 2.74-.65 5.64-.59 8.43-1 3.15-.51 6.29-1.12 9.39-1.9a110.85 110.85 0 0 0 9.47-2.84 92.11 92.11 0 0 0 9.46-3.82 125 125 0 0 0 13.24-7 111.52 111.52 0 0 0 16.26-12.7A133.93 133.93 0 0 0 215 154.84c2.35-3.2 4.12-6.83 6.16-10.26 3.86-6.47 6.54-13.48 9.09-20.52a99.73 99.73 0 0 0 2.9-11c.73-3.12 1.43-6.26 1.87-9.43a81.4 81.4 0 0 0 .95-10.9c0-6.18-.28-12.36-.62-18.54a70.7 70.7 0 0 0-1.15-8.15c-.49-2.77-1.08-5.53-1.67-8.28a56.57 56.57 0 0 0-1.3-5.51c-.81-2.51-1.78-5-2.71-7.43-1-2.63-1.89-5.33-3.09-7.87-1.37-2.92-3.17-5.63-4.56-8.54a73.42 73.42 0 0 0-8.7-13.35 8.45 8.45 0 0 0-7-3.4l-40.34.05q-61.47 0-122.94 0a9.77 9.77 0 0 0-3.26.7c-2.89 1.05-4.25 3.7-5.87 6-1.45 2.06-2.78 4.21-4 6.39-1.84 3.18-3.65 6.38-5.32 9.66A73.52 73.52 0 0 0 20 42.17c-1.51 4-2.89 8.16-4.21 12.29-.65 2-1.1 4.12-1.57 6.2S13.24 64.87 13 67c-.44 3.24-.75 6.49-1 9.75a97 97 0 0 0-.53 10.49c.19 5.25.72 10.49 1.2 15.72.23 2.47.65 4.92 1.06 7.37.17 1 .55 2.06.8 3.1.12.52.15 1.06.22 1.59zm110.78 81.27c-5.92-.43-11.86-.66-17.74-1.35a119.85 119.85 0 0 1-12.1-2.41 92.94 92.94 0 0 1-18.18-6.16A72 72 0 0 1 53.18 169a88.32 88.32 0 0 1-10.89-14.35l-9.46-16c-.74-1.25-1.48-2.49-2.12-3.78s-.1-2.09 1.27-2.3c2.88-.45 5.82-.61 8.64-1.31 5-1.23 10-.81 15-.87a63.82 63.82 0 0 1 15.19 1.82c2.48.58 5 .83 7.49 1.42 3.21.77 6.38 1.74 9.55 2.63l13.23 3.72c4.24 1.12 8.5 2.17 12.78 3.09 3.57.76 7.17 1.45 10.79 1.89 3.94.47 7.92.71 11.88.89 3.3.15 6.44-.82 9.58-1.75 2.72-.8 5.52-1.34 8.24-2.15 3.73-1.12 7.4-2.39 11.11-3.57q3.69-1.19 7.38-2.29l14.62-4.29a70 70 0 0 1 7.51-1.42c3.28-.52 6.57-1.08 9.88-1.38a38.45 38.45 0 0 1 7.88-.06c2.63.31 3.46 2.91 2 5.18q-4.69 7.47-9.27 15a99.38 99.38 0 0 1-20.2 24.35 120 120 0 0 1-18.43 13 74.47 74.47 0 0 1-14.83 6.4 49.22 49.22 0 0 1-6.27 1.34 135.4 135.4 0 0 1-20.95 1.96zM136 79c7.68 3.36 14.3 8.21 20.65 13.69l7.26-6.93c2.46-2.31 4.62-4.58 7.17-6.56 4.59-3.55 10.33-1.38 12.62 3.41 1.28 2.7.46 5.32-.35 7.93-.23.73-.41 1.46-.61 2.19a38.45 38.45 0 0 0-.74 12.77 61.54 61.54 0 0 0 1.89 9.51c.79 3.34-1.92 6.29-4.3 7.15-3.4 1.24-5.81-.44-8-2.61l-13.13-13.35c-.59-.6-1-.67-1.53 0-4.06 4.77-9.14 8.32-14.33 11.67-2.64 1.7-5.58 2.91-8.55 4.42.83 1.71 1.79 3.51 2.59 5.36 1 2.37 2.93 4.43 2.55 7.31-.13 1-1.47 2.87-2.46 3a7.64 7.64 0 0 1-6.7-2.11c-3.31-3.21-6.63-6.4-9.8-9.75-1.43-1.53-3-1-4.64-1a13.77 13.77 0 0 1-1.54.19c-3.87-.19-7.79 0-11.58-.71-5.16-.92-10.3-2.22-14.8-5.2-3.13-2.08-6.56-3.78-9.44-6.16a109.68 109.68 0 0 1-8.83-8.82 1.39 1.39 0 0 1-.11-1.31c2.14-3.33 4.19-6.74 6.6-9.88a52.77 52.77 0 0 1 6.78-7.32 66.68 66.68 0 0 1 8.25-6.08 30.78 30.78 0 0 1 5.27-2.33c1.57-.63 3.16-1.26 4.78-1.73a23.18 23.18 0 0 1 3.24-.45 21.47 21.47 0 0 0 4.58-.74c1.06-.39 1.86-1.46 2.76-2.26 3-2.65 5.94-5.41 9.06-7.93a43 43 0 0 1 6.46-4.31 28.11 28.11 0 0 1 5.15-1.83c3.42-1.07 7-.73 10.44-.6A28.08 28.08 0 0 1 154 60.45c1.24.61 1.32 1.51.21 2.48l-12.05 10.59L136 79zm-48.82 24.34a4.93 4.93 0 0 0 5.1-4.88c0-2.91-1.86-4.65-4.94-4.66s-5 1.73-5 4.48a5 5 0 0 0 4.84 5.06zm-3.44-58.29a9.77 9.77 0 0 1-9.66 9.63 9.88 9.88 0 0 1-9.54-9.61 9.6 9.6 0 0 1 19.2 0zM56 72.83a7.335 7.335 0 0 1 14.67.17A7.335 7.335 0 1 1 56 72.83zm7.24 22.08c0 2.31-1.22 3.51-3.58 3.51a3.6 3.6 0 1 1 .05-7.19c2.34.09 3.73 1.66 3.53 3.68z"/></svg>