<svg xmlns="http://www.w3.org/2000/svg" viewBox="0 0 205 205" xmlns:v="https://vecta.io/nano"><path d="M181.2 68.6h-14.5V48.5L140.1 75c9.5 12 14.3 25.6 14.3 40.8 0 18-6.4 33.3-19.2 46.1s-28.2 19.2-46.1 19.2S55.8 174.8 43 162s-19.2-28.1-19.2-46.1c0-17.8 6.4-33.2 19.2-45.9 12.8-12.8 28.2-19.2 46.1-19.2 15.3 0 28.9 4.7 40.8 14.2l26.6-26.6h-20.1V23.8h44.8v44.8zm-92.1 98.2c13.9 0 25.9-5 35.8-14.9 10-10 15-22 15-36s-5-25.9-14.9-35.8-21.9-14.9-35.9-14.9c-13.9 0-25.9 5-35.8 14.9-10 9.9-14.9 21.9-14.9 35.8 0 14 4.9 26 14.9 36 9.9 9.9 21.9 14.9 35.8 14.9z" fill="#fff" stroke="#fff" stroke-width="5" stroke-linejoin="round"/></svg>