<svg id="Layer_1" data-name="Layer 1" xmlns="http://www.w3.org/2000/svg" viewBox="0 0 20.23 20.23"><defs><style>.cls-1{fill:#15151c;}</style></defs><path class="cls-1" d="M10.12,20.23H2.75A2.75,2.75,0,0,1,0,17.48V10.12A10.12,10.12,0,1,1,10.12,20.23Zm0-18.73A8.63,8.63,0,0,0,1.5,10.12v7.36a1.25,1.25,0,0,0,1.25,1.25h7.37a8.62,8.62,0,0,0,0-17.23Z"/><path class="cls-1" d="M13.52,9.16H6.71a.75.75,0,0,1,0-1.5h6.81a.75.75,0,0,1,0,1.5Z"/><path class="cls-1" d="M10.12,13.42H6.71a.75.75,0,1,1,0-1.5h3.41a.75.75,0,0,1,0,1.5Z"/></svg>