<svg xmlns="http://www.w3.org/2000/svg" xmlns:xlink="http://www.w3.org/1999/xlink" viewBox="0 0 950 500" xmlns:v="https://vecta.io/nano"><defs><clipPath id="A" transform="translate(174.07)"><circle cx="250.16" cy="250" r="250" fill="none"/></clipPath><clipPath id="B" transform="translate(174.07)"><path d="M.16 500l500-500v500H.16z" fill="none"/></clipPath><path id="C" d="M31.66 11.54l9 27.83-23.59-17.2h29.26l-23.67 17.2z"/><path id="D" d="M63.33 38.46l9 27.83-23.67-17.2h29.26l-23.67 17.2z"/><path id="E" d="M95 11.54l9 27.83-23.68-17.2h29.27l-23.68 17.2z"/><path id="F" d="M158.33 11.54l9 27.83-23.67-17.2h29.3l-23.67 17.2z"/><path id="G" d="M190 38.46l9 27.83-23.64-17.2h29.27l-23.68 17.2z"/><path id="H" d="M221.66 11.54l9 27.83-23.59-17.2h29.22l-23.67 17.2z"/></defs><g clip-path="url(#A)"><path d="M0 0h950v500H0z" fill="#b22435"/><path d="M0 57.69h950m0 76.93H0m0 76.92h950m0 76.92H0m0 76.92h950m0 76.93H0" fill="#010101" stroke="#fff" stroke-miterlimit="10" stroke-width="50"/><path d="M0 0h380v269.23H0z" fill="#3d3c6f"/><g fill="#fff"><use xlink:href="#C"/><path d="M31.66 65.38l9 27.84L17.07 76h29.26L22.66 93.2zm0 53.85l9 27.83-23.59-17.2h29.26l-23.67 17.2zm0 53.85l9 27.83-23.59-17.2h29.26l-23.67 17.2zm0 53.84l9 27.83-23.59-17.2h29.26l-23.67 17.2z"/><use xlink:href="#D"/><path d="M63.33 92.31l9 27.83-23.67-17.2h29.26l-23.67 17.2zm0 53.84l9 27.83-23.67-17.2h29.26L54.29 174zm0 53.85l9 27.83-23.67-17.2h29.26l-23.67 17.2z"/><use xlink:href="#E"/><path d="M95 65.38l9 27.84L80.36 76h29.27L85.95 93.2zm0 53.85l9 27.83-23.68-17.2h29.27l-23.68 17.2zm0 53.85l9 27.83-23.68-17.2h29.27l-23.68 17.2zm0 53.84l9 27.83-23.68-17.2h29.27l-23.68 17.2zm31.66-188.46l9 27.83-23.59-17.2h29.26l-23.67 17.2zm0 53.85l9 27.83-23.59-17.2h29.26l-23.67 17.2zm0 53.84l9 27.83-23.59-17.2h29.26L117.62 174zm0 53.85l9 27.83-23.59-17.2h29.26l-23.67 17.2z"/><use xlink:href="#F"/><path d="M158.33 65.38l9 27.84L143.7 76h29.26l-23.67 17.2zm0 53.85l9 27.83-23.67-17.2h29.3l-23.67 17.2zm0 53.85l9 27.83-23.67-17.2h29.3l-23.67 17.2zm0 53.84l9 27.83-23.67-17.2h29.3l-23.67 17.2z"/><use xlink:href="#G"/><path d="M190 92.31l9 27.83-23.64-17.2h29.27l-23.68 17.2zm0 53.84l9.07 27.85-23.71-17.22h29.27L180.95 174zm0 53.85l9 27.83-23.64-17.2h29.27l-23.68 17.2z"/><use xlink:href="#H"/><path d="M221.66 65.38l9 27.84L207.07 76h29.22l-23.67 17.22zm0 53.85l9 27.83-23.59-17.2h29.22l-23.67 17.2zm0 53.85l9 27.83-23.59-17.2h29.22l-23.67 17.2zm0 53.84l9 27.83-23.59-17.2h29.22l-23.67 17.2zm31.67-188.46l9 27.83-23.63-17.2h29.26l-23.67 17.2zm0 53.85l9 27.83-23.67-17.2h29.3l-23.67 17.2zm0 53.84l9 27.83-23.67-17.2h29.3L244.29 174zm0 53.85l9 27.83-23.67-17.2h29.3l-23.67 17.2zM285 11.54l9 27.83-23.64-17.2h29.27l-23.68 17.2zm0 53.84l9 27.84L270.36 76h29.27l-23.68 17.2zm0 53.85l9 27.83-23.68-17.2h29.27l-23.68 17.2zm0 53.85l9 27.83-23.68-17.2h29.27l-23.68 17.2zm0 53.84l9 27.83-23.68-17.2h29.27l-23.68 17.2zm31.66-188.46l9 27.83-23.59-17.2h29.26l-23.67 17.2zm0 53.85l9 27.83-23.59-17.2h29.26l-23.67 17.2zm0 53.84l9 27.83-23.59-17.2h29.26L307.62 174zm0 53.85l9 27.83-23.59-17.2h29.26l-23.67 17.2zm31.67-188.46l9 27.83-23.67-17.2h29.26l-23.67 17.2zm0 53.84l9 27.84L333.7 76h29.26l-23.67 17.2zm0 53.85l9 27.83-23.67-17.2h29.26l-23.67 17.2zm0 53.85l9 27.83-23.67-17.2h29.26l-23.67 17.2zm0 53.84l9 27.83-23.67-17.2h29.26l-23.67 17.2z"/></g><g clip-path="url(#B)"><path d="M49.23 0h750v500h-750z" fill="#ed2228"/><path d="M573.83 239a23.25 23.25 0 0 0-37-1 37.66 37.66 0 0 1-57.7 1 32.21 32.21 0 0 0-53.75 8c9.267-29.456 40.304-46.176 70-37.71a17.27 17.27 0 0 1 .55-1.15c-30.153-8.72-61.792 8.024-71.54 37.86 2.567-38.184 33.37-68.367 71.598-70.158S567.705 201.223 573.83 239" fill="#fff"/><path d="M518.97 221l-16.62-18.8 2.43 24.94 12.69-21.6-23 10" fill="#ed2228"/><path d="M309.66 346.82a23.27 23.27 0 0 0 30.52-20.88 37.62 37.62 0 0 1 46.11-34.69 32.2 32.2 0 0 0 38.78-38.06c9.825 29.289-5.471 61.074-34.49 71.67a17.2 17.2 0 0 1 .23 1.25c29.579-10.667 45.35-42.887 35.63-72.79 20.374 32.401 13.197 74.932-16.682 98.853s-72.95 21.618-100.108-5.353" fill="#fff"/><path d="M364.66 329.19l24.47 5.4-16.63-18.75 2.43 24.94 12.7-21.61" fill="#ed2228"/><path d="M480.91 388.88a23.24 23.24 0 0 0-10.43-35.47 37.66 37.66 0 0 1-18.75-54.58 32.2 32.2 0 0 0-24.21-48.65c30.91-.318 56.44 24.059 57.55 54.95.42 0 .85.09 1.26.17-1-31.446-26.798-56.412-58.26-56.38 37.145-9.438 75.451 10.533 88.982 46.39s-2.033 76.156-36.152 93.61" fill="#fff"/><path d="M481.14 331.13l12.69-21.61-23 10 24.47 5.4-16.62-18.75" fill="#ed2228"/></g></g></svg>