<svg xmlns="http://www.w3.org/2000/svg" xmlns:xlink="http://www.w3.org/1999/xlink" viewBox="0 0 500 500" xmlns:v="https://vecta.io/nano"><defs><circle id="A" cx="250" cy="250" r="250"/></defs><clipPath id="B"><use xlink:href="#A"/></clipPath><g clip-path="url(#B)"><path d="M-174.2,0h950v500h-950V0z" fill="#b22435"/><path d="M-174.2 57.7h950m0 76.9h-950m0 76.9h950m0 77h-950m0 76.9h950m0 76.9h-950" fill="#010101" stroke="#fff" stroke-width="50" stroke-miterlimit="10"/><path d="M-174.2,0h380v269.2h-380V0z" fill="#3d3c6f"/><g fill="#fff"><path d="M-142.6 11.5l9 27.8-23.6-17.2h29.3l-23.7 17.2 9-27.8zm0 53.9l9 27.8-23.6-17.2h29.3l-23.7 17.2 9-27.8zm0 53.8l9 27.8-23.6-17.2h29.3l-23.7 17.2 9-27.8zm0 53.9l9 27.8-23.6-17.2h29.3l-23.7 17.2 9-27.8zm0 53.8l9 27.8-23.6-17.2h29.3l-23.7 17.2 9-27.8zm31.7-188.4l9 27.8-23.7-17.2h29.3L-120 66.3l9.1-27.8zm0 53.8l9 27.8-23.7-17.2h29.3l-23.7 17.2 9.1-27.8zm0 53.8l9 27.8-23.7-17.2h29.3l-23.6 17.2 9-27.8zm0 53.9l9 27.8-23.7-17.2h29.3l-23.7 17.2 9.1-27.8zm31.7-188.5l9 27.8-23.7-17.2h29.3l-23.7 17.2 9.1-27.8zm0 53.9l9 27.8L-93.9 76h29.3l-23.7 17.2 9.1-27.8zm0 53.8l9 27.8-23.7-17.2h29.3L-88.3 147l9.1-27.8zm0 53.9l9 27.8-23.7-17.2h29.3l-23.7 17.2 9.1-27.8zm0 53.8l9 27.8-23.7-17.2h29.3l-23.7 17.2 9.1-27.8zm31.6-188.4l9 27.8-23.6-17.2h29.3l-23.7 17.2 9-27.8zm0 53.8l9 27.8-23.6-17.2h29.3l-23.7 17.2 9-27.8zm0 53.8l9 27.8-23.6-17.2h29.3L-56.6 174l9-27.9zm0 53.9l9 27.8-23.6-17.2h29.3l-23.7 17.2 9-27.8zm31.7-188.5l9 27.8-23.7-17.2h29.3L-25 39.3l9.1-27.8zm0 53.9l9 27.8L-30.5 76h29.3l-23.7 17.2 9-27.8zm0 53.8l9 27.8-23.7-17.2h29.3L-25 147l9.1-27.8zm0 53.9l9 27.8-23.7-17.2h29.3L-25 200.9l9.1-27.8zm0 53.8l9 27.8-23.7-17.2h29.3L-25 254.7l9.1-27.8zM15.8 38.5l9 27.8L1.1 49.1h29.3L6.7 66.3l9.1-27.8zm0 53.8l9 27.8-23.7-17.2h29.3L6.7 120.1l9.1-27.8zm0 53.8l9.1 27.9-23.8-17.2h29.3L6.7 174l9.1-27.9zm0 53.9l9 27.8-23.7-17.2h29.3L6.7 227.8l9.1-27.8zM47.4 11.5l9 27.8-23.6-17.1H62L38.4 39.4l9-27.9zm0 53.9l9 27.8L32.8 76H62L38.4 93.2l9-27.8zm0 53.8l9 27.8-23.6-17.2H62L38.3 147l9.1-27.8zm0 53.9l9 27.8-23.6-17.2H62l-23.7 17.2 9.1-27.8zm0 53.8l9 27.8-23.6-17.2H62l-23.7 17.2 9.1-27.8zM79.1 38.5l9 27.8-23.6-17.2h29.3L70.1 66.3l9-27.8zm0 53.8l9 27.8-23.7-17.2h29.3L70 120.1l9.1-27.8zm0 53.8l9 27.8-23.7-17.2h29.3L70.1 174l9-27.9zm0 53.9l9 27.8-23.7-17.2h29.3L70 227.8l9.1-27.8zm31.7-188.5l9 27.8-23.7-17.1h29.3l-23.7 17.2 9.1-27.9zm0 53.9l9 27.8L96.1 76h29.3l-23.7 17.2 9.1-27.8zm0 53.8l9 27.8-23.7-17.2h29.3L101.7 147l9.1-27.8zm0 53.9l9 27.8-23.7-17.2h29.3l-23.7 17.2 9.1-27.8zm0 53.8l9 27.8-23.7-17.2h29.3l-23.7 17.2 9.1-27.8zm31.6-188.4l9 27.8-23.6-17.2h29.3l-23.7 17.2 9-27.8zm0 53.8l9 27.8-23.6-17.2h29.3l-23.7 17.2 9-27.8zm0 53.8l9 27.8-23.6-17.2h29.3L133.4 174l9-27.9zm0 53.9l9 27.8-23.6-17.2h29.3l-23.7 17.2 9-27.8zm31.7-188.5l9 27.8-23.7-17.2h29.3L165 39.4l9.1-27.9zm0 53.9l9 27.8L159.5 76h29.3l-23.7 17.2 9-27.8zm0 53.8l9 27.8-23.7-17.2h29.3L165 147.1l9.1-27.9zm0 53.9l9 27.8-23.7-17.2h29.3L165 200.9l9.1-27.8zm0 53.8l9 27.8-23.7-17.2h29.3L165 254.7l9.1-27.8z"/></g><defs><path id="C" d="M0 500L500 0v500z"/></defs><clipPath id="D"><use xlink:href="#C"/></clipPath><g clip-path="url(#D)"><path d="M-125 0h750v500h-750V0z" fill="#ed2228"/><path d="M399.6 239c-7.5-10.4-22-12.8-32.4-5.3-1.7 1.2-3.2 2.7-4.6 4.3-13.1 16.2-36.8 18.7-53 5.6-1.7-1.4-3.3-2.9-4.7-4.6-11.7-13.4-32-14.9-45.4-3.2-3.6 3.1-6.4 6.9-8.3 11.2 9.3-29.5 40.3-46.2 70-37.7.2-.4.4-.8.5-1.1-30.2-8.7-61.8 8-71.5 37.9 2.6-38.2 33.4-68.4 71.6-70.2s71.7 25.3 77.8 63.1" fill="#fff"/><path d="M344.7 221l-16.6-18.8 2.4 24.9 12.7-21.6-23 10" fill="#ed2228"/><path d="M135.4 346.8c12.2 4 25.4-2.6 29.4-14.8.6-2 1-4 1.1-6.1 1.1-20.7 18.8-36.7 39.5-35.6a37.39 37.39 0 0 1 6.6.9c17.3 4 34.6-6.8 38.6-24.1 1.1-4.6 1.1-9.4.1-14 9.8 29.3-5.5 61.1-34.5 71.7.1.4.2.8.2 1.2 29.6-10.7 45.4-42.9 35.6-72.8 20.4 32.4 13.2 74.9-16.7 98.9s-72.7 21.7-99.9-5.3" fill="#fff"/><path d="M190.4 329.2l24.5 5.4-16.6-18.8 2.4 24.9 12.7-21.6" fill="#ed2228"/><path d="M306.7 388.9c7.6-10.3 5.4-24.9-5-32.5a26.53 26.53 0 0 0-5.5-3c-19.4-7.5-29.1-29.3-21.6-48.7.8-2.1 1.8-4 2.9-5.9 9.2-15.2 4.3-35-10.9-44.2-4-2.4-8.6-4-13.3-4.4 30.9-.3 56.4 24.1 57.5 55 .4 0 .9.1 1.3.2-1-31.4-26.8-56.4-58.3-56.4 37.1-9.4 75.5 10.5 89 46.4s-2 76.1-36.1 93.5" fill="#fff"/><path d="M306.9 331.1l12.7-21.6-23 10 24.5 5.4-16.6-18.8" fill="#ed2228"/></g></g></svg>