<svg xmlns="http://www.w3.org/2000/svg" viewBox="0 0 231.64 273.25" fill="#00a190" xmlns:v="https://vecta.io/nano"><path d="M206.25 113.38c13.32-20.63 27.64-49 25.09-74.37-2.17-21.64-17.52-39-40.07-39-39 0-48.5 44.23-53.74 78.18l-.74 3.44c-1.26 6.14-2.26 12.33-3.3 18H98.14l-3.29-18-.73-3.33C88.89 44.33 79.42 0 40.37 0 17.81 0 2.47 17.37.3 39c-2.55 25.4 11.77 53.75 25.09 74.38a192.64 192.64 0 0 0 13.83 18.81c1.1 1.33 2.29 2.32.86 4.49C29.8 152.3 25.17 172.44 26 191c1.29 30.33 18.79 56.84 44.77 71.71 14.44 8.26 29.73 10.5 43.49 10.5a165.33 165.33 0 0 0 16.65-.93c23.84-2.42 45.36-15.68 59-35.26 19.87-28.52 20.9-71.19 1.68-100.38-1.44-2.17-.24-3.16.86-4.49a194.3 194.3 0 0 0 13.8-18.77zM180.38 119c-.41.54-.87 1.07-1.52 1.84-1.28-1-2.29-1.84-3.34-2.6a39.28 39.28 0 0 0-3.83-2.62 8.49 8.49 0 0 0-5.11-1.07 7.36 7.36 0 0 0-5.89 2.85c-2.95 3.65-2.2 8.13 2.27 12.29a82.9 82.9 0 0 1 16.7 21.34c14.4 26.59 10.61 62.9-11.2 84.69a67.17 67.17 0 0 1-47.11 19.66c-13.51.13-27.79-.32-40.5-7.23C47.19 229.9 33.67 184.87 52 151.07a82.87 82.87 0 0 1 16.69-21.34c4.48-4.16 5.23-8.64 2.27-12.29a7.34 7.34 0 0 0-5.88-2.85 8.49 8.49 0 0 0-5.08 1.07 39.28 39.28 0 0 0-3.83 2.62l-3.34 2.6-1.53-1.84C42.06 107 34.63 93.8 27.76 80.35 21 67.09 13.12 52.19 15.24 36.79c1.68-12.17 12.88-21.44 25.13-21.44 16.81 0 23.66 15 27.73 29 6 20.6 11.08 41.28 14 62.57.12.87.18 1.76.27 2.64.61 5.93 4 8.92 9.33 8.42a17.82 17.82 0 0 0 2.89-.38 98.39 98.39 0 0 1 42.48 0 17.82 17.82 0 0 0 2.93.4c5.37.5 8.72-2.49 9.33-8.42.09-.88.15-1.77.27-2.64 2.91-21.29 8-42 14-62.57 4.08-14 10.92-29 27.74-29 12.25 0 23.45 9.27 25.12 21.45C220.37 65.73 197 97.37 180.38 119zm-9.95 59c-.07 8.63-6.41 15.49-14.13 15.29-7.36-.19-13.67-7.42-13.53-15.52.15-8.36 6.34-15.19 13.77-15.16 7.97-.01 13.96 6.63 13.89 15.39zm-81.37 0c0 8.16-6.41 15.21-13.78 15.29-7.63.07-14-7-14-15.54s6.39-15.29 14.26-15.12c7.6.13 13.57 6.93 13.52 15.37zm78.79-76.14c-3.56-3.44-.24-11.87 1-15.63 2.21-6.59 10.44-28.62 20.34-23.48s.9 20.76-3.35 26.75c-3.34 4.7-8.67 13-15.11 13.3a3.75 3.75 0 0 1-2.88-.94zm-101.77 0c3.57-3.44.25-11.87-1-15.63-2.21-6.59-10.44-28.62-20.33-23.48s-.9 20.76 3.34 26.75c3.34 4.7 8.67 13 15.11 13.3a3.74 3.74 0 0 0 2.88-.94zm79.18 110.7c-2.4-1.45-4.86-.7-6.76 2a9.7 9.7 0 0 1-10.84 4.16c-4-1.11-5.92-5-6.76-8.43a16.32 16.32 0 0 0 8.51-6.13c5.41-7.55-3.92-11.37-13.34-11.42-9.77-.06-19.64 3.93-13.38 12a16.13 16.13 0 0 0 8.22 5.6 9.71 9.71 0 0 1-.86 2.45 7.67 7.67 0 0 1-.34.78 9 9 0 0 1-11.11 5.1 10.5 10.5 0 0 1-5.81-4.67 4.59 4.59 0 0 0-6.19-1.57c-2 1.14-3.1 3.8-1.9 5.84a26.36 26.36 0 0 0 4.3 5.27 17 17 0 0 0 12.73 4.86c5.41-.16 10.21-2 13.64-6.55.33-.45.54-.58 1 0a17.57 17.57 0 0 0 16.24 6.35c6.45-.77 11.08-4.26 14.37-9.65a4.45 4.45 0 0 0-1.72-5.99z"/></svg>