<svg xmlns="http://www.w3.org/2000/svg" viewBox="0 0 278.16 242.98" fill="#00a190" xmlns:v="https://vecta.io/nano"><path d="M185.08 121.16c-8.5 0-15.6 7.78-15.77 17.37-.16 9.27 7.07 17.55 15.5 17.77 8.84.23 16.1-7.63 16.18-17.51s-6.78-17.59-15.91-17.63zm-92.76.03c-9-.19-16.27 7.5-16.33 17.33s7.27 17.87 16 17.79c8.44-.08 15.72-8.16 15.78-17.51.08-9.62-6.77-17.42-15.45-17.61zM278.16 55.5a55.5 55.5 0 0 0-110.45-7.75 128.21 128.21 0 0 0-57.25.07 55.49 55.49 0 1 0-81.72 56.24l.05 31.52c.55 41.43 18.5 72.9 54.56 93.54 23.18 13.26 48.56 14.35 74.32 11.74 51.05-5.19 91.45-49.38 92-100.79l.14-36.21a55.46 55.46 0 0 0 28.35-48.36zM237 90.94c-3.79 3-4.94 5.92-4.87 10.75l.38 36.33a87 87 0 0 1-86.61 86.67c-18.14.17-36-.55-52.36-9.43-30.63-16.67-46.87-42.63-47.54-77.52-.18-8.59-.2-17.18-.11-25.78.03-5.85 1.62-12.72-1.89-17.96-3.94-5.82-11.59-7.48-16.49-12.32A37 37 0 0 1 17 55.5a38.54 38.54 0 0 1 77 0c0 4.56-3.4 11.83 2.72 13.73 1.73.54 13.06-2.27 13.3-3.6v-.13a111.46 111.46 0 0 1 58-.1 1.85 1.85 0 0 1 0 .23c4.31 1 14.41 7.62 16.63.63.66-2.05.21-4.27-.21-6.38C180.05 37.51 201.24 17 222.66 17a38.51 38.51 0 0 1 29.43 63.37c-3.23 3.79-10.24 6.81-15.09 10.57z"/><path d="M185.35 190.29c27-2.11 55.25-3 77.64 14.56 5.72 4.49-2.33 12.44-8 8-19.55-15.33-46.44-13.06-69.64-11.25-7.26.57-7.22-10.74 0-11.31zm-3.14 16.99a89.24 89.24 0 0 1 26.57 9.49c8.32 4.57 15.28 10.83 22.56 16.83 5.62 4.63-2.42 12.6-8 8-6.56-5.41-12.78-10.94-20.27-15.07a79.72 79.72 0 0 0-23.86-8.34c-7.15-1.34-4.12-12.25 3-10.91zm-88.3-16.99c-26.94-2.11-55.24-3-77.63 14.56-5.73 4.49 2.33 12.44 8 8 19.55-15.33 46.44-13.06 69.64-11.25 7.26.57 7.22-10.74 0-11.31zm3.14 16.99a89.09 89.09 0 0 0-26.56 9.49c-8.33 4.57-15.28 10.83-22.57 16.83-5.62 4.63 2.42 12.6 8 8 6.56-5.41 12.78-10.94 20.28-15.07a79.53 79.53 0 0 1 23.86-8.34c7.14-1.34 4.12-12.25-3-10.91z"/><circle cx="54.44" cy="54.3" r="18.82"/><circle cx="222.31" cy="54.3" r="18.82"/><path d="M169.08 197.15c-2.45-1.48-5-.72-6.9 2.08a9.88 9.88 0 0 1-11.06 4.24c-4.08-1.13-6-5.06-6.9-8.6a16.71 16.71 0 0 0 8.69-6.25c5.51-7.71-4-11.61-13.63-11.66-10-.06-20 4-13.65 12.26a16.51 16.51 0 0 0 8.4 5.72 10.32 10.32 0 0 1-.89 2.5c-.09.27-.23.53-.34.79a9.16 9.16 0 0 1-11.34 5.21 10.75 10.75 0 0 1-5.93-4.8 4.69 4.69 0 0 0-6.32-1.59c-2.06 1.16-3.16 3.88-1.94 6a26.49 26.49 0 0 0 4.35 5.34 17.33 17.33 0 0 0 13 5c5.52-.17 10.42-2.08 13.92-6.69.34-.45.55-.59 1.05 0a17.94 17.94 0 0 0 16.58 6.48c6.58-.79 11.3-4.35 14.66-9.85a4.54 4.54 0 0 0-1.75-6.18z"/></svg>