<svg width="600" height="623" viewBox="0 0 600 623" fill="none" xmlns="http://www.w3.org/2000/svg">
<path opacity="0.05" fill-rule="evenodd" clip-rule="evenodd" d="M262.462 22.3316C322.315 12.2521 393.111 -20.1193 440.048 18.363C487.384 57.1733 447.611 138.619 472.504 194.541C502.6 262.151 618.742 300.752 597.275 371.575C575.987 441.804 455.072 403.049 396.075 446.69C336.125 491.035 334.863 601.388 262.462 619.237C191.811 636.655 114.664 584.808 70.5435 526.942C30.1217 473.927 57.2931 399.018 44.6464 333.561C34.2469 279.735 -12.5885 231.048 3.23373 178.56C19.1098 125.893 76.4836 100.049 123.596 71.6555C166.724 45.6641 212.808 30.6938 262.462 22.3316Z" fill="#264653"/>
</svg>
