<svg xmlns="http://www.w3.org/2000/svg" width="600" height="623" fill="none" xmlns:v="https://vecta.io/nano"><path opacity=".05" fill-rule="evenodd" d="M262.462 22.332c59.853-10.08 130.649-42.451 177.586-3.969 47.336 38.81 7.563 120.256 32.456 176.178 30.096 67.61 146.238 106.211 124.771 177.034-21.288 70.229-142.203 31.474-201.2 75.115-59.95 44.345-61.212 154.698-133.613 172.547-70.651 17.418-147.798-34.429-191.918-92.295-40.422-53.015-13.25-127.924-25.897-193.381-10.4-53.826-57.235-102.513-41.413-155.001 15.876-52.667 73.25-78.511 120.362-106.904 43.128-25.991 89.212-40.962 138.866-49.324z" fill="#264653"/></svg>