<svg width="586" height="529" viewBox="0 0 586 529" fill="none" xmlns="http://www.w3.org/2000/svg">
<path opacity="0.05" fill-rule="evenodd" clip-rule="evenodd" d="M280.422 34.5983C329.949 41.9216 378.859 38.1288 425.212 57.0485C484.452 81.2284 564.58 96.7475 582.891 158.056C601.268 219.588 530.034 270.029 506.69 329.853C485.346 384.553 496.604 454.36 452.257 492.844C407.083 532.045 340.036 531.062 280.422 526.205C224.596 521.655 173.888 498.23 127.797 466.404C80.6573 433.854 35.368 396.098 14.6517 342.688C-6.77495 287.448 -2.2541 226.669 12.5566 169.3C28.1792 108.785 44.9426 37.154 100.778 9.07592C156.169 -18.7783 219.089 25.5293 280.422 34.5983Z" fill="#2A9D8F"/>
</svg>
