<svg xmlns="http://www.w3.org/2000/svg" width="620" height="649" fill="none" xmlns:v="https://vecta.io/nano"><path opacity=".1" fill-rule="evenodd" d="M318.927 0c69.139.151 105.049 83.102 150.684 135.041 35.087 39.935 60.198 83.507 83.374 131.348 27.466 56.696 79.3 111.784 64.014 172.899-15.351 61.376-85.33 88.434-138.104 123.327-50.208 33.196-100.598 63.848-159.968 73.752-68.927 11.499-145.61 25.229-204.094-13.017-59.208-38.72-78.477-114.852-96.175-183.347-16.73-64.747-31.089-135.6-1.767-195.702 27.968-57.325 101.281-69.808 150.873-109.92C221.498 90.919 249.817-.151 318.927 0z" fill="#ca793f"/></svg>