<svg width="511" height="700" viewBox="0 0 511 700" fill="none" xmlns="http://www.w3.org/2000/svg">
<path opacity="0.07" fill-rule="evenodd" clip-rule="evenodd" d="M221.803 65.5072C301.968 52.7428 383.211 -29.7851 453.128 11.431C521.344 51.6439 506.871 156.746 510.676 235.797C513.622 296.985 496.13 354.474 472.36 410.94C450.562 462.721 417.936 505.597 379.746 546.82C331.565 598.826 289.939 661.72 221.803 681.392C142.155 704.388 44.5977 714.095 -20.0706 662.255C-84.5483 610.568 -76.3661 512.379 -90.5464 431.003C-102.553 362.102 -120 292.103 -96.0211 226.398C-72.5177 161.995 -22.7159 108.433 38.4808 77.4532C94.4784 49.1058 159.812 75.3777 221.803 65.5072Z" fill="#E9C46A"/>
</svg>
