<svg xmlns="http://www.w3.org/2000/svg" width="586" height="529" fill="none" xmlns:v="https://vecta.io/nano"><path opacity=".05" fill-rule="evenodd" d="M280.422 34.598c49.527 7.323 98.437 3.53 144.79 22.45 59.24 24.18 139.368 39.699 157.679 101.008 18.377 61.532-52.857 111.973-76.201 171.797-21.344 54.7-10.086 124.507-54.433 162.991-45.174 39.201-112.221 38.218-171.835 33.361-55.826-4.55-106.534-27.975-152.625-59.801-47.14-32.55-92.429-70.306-113.145-123.716-21.427-55.24-16.906-116.019-2.095-173.388C28.179 108.785 44.943 37.154 100.778 9.076c55.391-27.854 118.311 16.453 179.644 25.522z" fill="#2a9d8f"/></svg>