<svg xmlns="http://www.w3.org/2000/svg" width="511" height="700" fill="none" xmlns:v="https://vecta.io/nano"><path opacity=".07" fill-rule="evenodd" d="M221.803 65.507c80.165-12.764 161.408-95.292 231.325-54.076 68.216 40.213 53.743 145.315 57.548 224.366 2.946 61.188-14.546 118.677-38.316 175.143-21.798 51.781-54.424 94.657-92.614 135.88-48.181 52.006-89.807 114.9-157.943 134.572-79.648 22.996-177.205 32.703-241.874-19.137-64.478-51.687-56.296-149.876-70.476-231.252-12.007-68.901-29.454-138.9-5.475-204.605 23.503-64.403 73.305-117.965 134.502-148.945 55.998-28.347 121.331-2.075 183.322-11.946z" fill="#e9c46a"/></svg>