<svg xmlns="http://www.w3.org/2000/svg" viewBox="0 0 280.21 163.28" fill="#00a190" xmlns:v="https://vecta.io/nano"><path d="M238.07 75.21h19.23c10.66.25 20.2 7.86 22.27 18.26 3.71 18.64-9.12 29.9-23.68 30.25-6.09.15-12.18 0-18.27.07-.84 0-2.15.39-2.42 1-4.12 9-10.95 15.56-19 20.91-16.2 10.8-33.95 17.12-53.54 17.56-1.07 0-2.15 0-3.24-.1a5.88 5.88 0 0 1-4.78-8.59l8-15.27-9 .86a238.78 238.78 0 0 1-46 .38c-11.44-1.05-22.77-3.22-34.16-4.82a3.39 3.39 0 0 0-2.57.5c-7 7.16-15.86 10.75-25.32 13-12.32 2.9-24.79 3.57-37.22.7-1.33-.31-2.65-.7-4-1.14a6.39 6.39 0 0 1-2.76-10.37c7.75-8.51 16.5-15.65 25.81-22.77-1.14-1-2.26-1.84-3.26-2.82-4.27-4.23-7.47-9-8.55-15.14a3.39 3.39 0 0 0-2.21-2.18c-3.45-.64-4.64-2.85-5.22-5.93a18.2 18.2 0 0 1 9.08-19.3c4.09-2.22 6.26-5.12 7.81-9.6 5.76-16.54 17-29 31.17-38.85 16-11.15 33.87-17.47 53.08-20.26a137.64 137.64 0 0 1 62.65 5C191.14 12.67 207.93 22.6 221.1 38c8.53 10 14.25 21.37 16.35 34.45.12.83.36 1.62.62 2.76zm-114.44 1.16h0V62.75c.06-3-1.51-4.42-5.56-5.79a64.91 64.91 0 0 1-22.17-12.8c-3.54-3.15-5.7-3.51-8.46-1.64A80.21 80.21 0 0 0 69.17 59.9c-6.12 7.87-10.9 16.46-13.3 26.23-.74 3 .17 4.61 3 4.85l22.24 1.69 37.78 1.58c3.62.16 4.73-.83 4.75-4.54l-.01-13.34zM78 126.15a8.59 8.59 0 0 0 .94.27 233.6 233.6 0 0 0 37.23 4.23 298 298 0 0 0 46.27-1.83c4-.47 7-1.61 9.51-4.89 5-6.4 10.72-12.29 16.14-18.4a12.84 12.84 0 0 0 .88-1.32c-38.5 4.71-76.73 3.91-115.06 1.68 5.36 8.72 5.52 9.52 4.09 20.26zm57.8-49.78h0v13.09c0 4.08.55 4.66 4.52 4.6a448.86 448.86 0 0 0 57-4.7c2.38-.35 3.39-1.84 2.83-4.34-4-18-14-32-29.09-42.51-2.82-1.95-5.06-.88-9 2.9A47.79 47.79 0 0 1 142.4 56.7c-4.76 1.41-6.68 2.63-6.62 5.76l.02 13.91zm-6.29-65l-29.17 4.19c-2.82.39-3.64 2.15-3.45 4.91a38.47 38.47 0 0 1 0 5.88c-.29 3.3 1.1 5.11 4.81 6.6a92.42 92.42 0 0 1 24 13.82c2.7 2.19 4.58 2.24 6.91.86L154.19 35c9.9-5.88 8.2-2.46 8.35-14.58a5 5 0 0 0-4.26-5.06l-28.77-4.02zM17.61 136a2.93 2.93 0 0 0 1.59 5.1 70.65 70.65 0 0 0 27.37-2.49c6.13-1.82 12-4.26 16.31-9.17 4-4.56 4.63-9.81 2.25-15.35a7.41 7.41 0 0 0-8.56-4.17 21.33 21.33 0 0 0-6.46 2.39c-7.28 4.65-14.57 9.34-21.51 14.47-3.78 2.77-7.29 5.91-10.99 9.22zm156.46 6.18a3.18 3.18 0 0 0 2.86 5.06 76.56 76.56 0 0 0 28.56-8.95c6.1-3.34 11.75-7.27 15.25-13.5 3.25-5.79 2.68-11.51-1.13-16.85a8.07 8.07 0 0 0-10.07-2.47 23 23 0 0 0-6.33 4c-6.68 6.63-13.36 13.29-19.57 20.35-3.37 3.84-6.39 7.99-9.57 12.34zM19.39 84.5c.68.46.89.7 1.13.75l19.81 3.41c.88.13 2.2-1.2 2.94-2.15.56-.7.47-1.89.72-2.85 5.86-22.19 19-39.07 37.82-51.78a6.12 6.12 0 0 0 3.08-6c-.21-3.88-1.89-5.16-5.24-3.34-6.29 3.4-12.72 6.68-18.51 10.83C49.05 42 39.77 53.12 35.6 67.65c-1.63 5.68-4.68 9.43-9.89 11.76a15.87 15.87 0 0 0-3.57 2 23.38 23.38 0 0 0-2.75 3.09zm207.4-.77c-.89-5.24-1.2-10.29-2.64-15-7.13-23.35-24.31-37.1-45.62-46.67-.84-.38-2.78.3-3.42 1.12-1.71 2.14-.38 7.37 2 8.81 10.22 6.24 18.06 14.83 24.45 24.83a73.39 73.39 0 0 1 10.54 26.33c.41 2.17 1.49 3.36 3.69 3 3.45-.68 6.88-1.52 11-2.42zm4.52 11.8a31.78 31.78 0 0 1 6.18 19.47c6.86 0 13.5.44 20.06-.12 7.8-.66 13.5-6.58 13.67-13.11.28-10.14-3.6-16.29-12.36-17.44-6.67-.87-13.53-.17-20.41-.17 0 .7 0 1.32-.09 1.94-.2 2.26.32 5-.82 6.63s-3.93 1.84-6.23 2.8zm-182.92 6.66L27.3 98.74c1.7 4.88 4.7 8.26 8.1 11.18a1.32 1.32 0 0 0 1.32 0l11.67-7.73zm217.44-7.3a6.191 6.191 0 1 1-12.38.18 6.1 6.1 0 0 1 6.13-6.24 6 6 0 0 1 6.25 6.06z"/></svg>